<?xml version="1.0" standalone="no"?>
<!DOCTYPE svg PUBLIC "-//W3C//DTD SVG 20010904//EN"
 "http://www.w3.org/TR/2001/REC-SVG-20010904/DTD/svg10.dtd">
<svg version="1.0" xmlns="http://www.w3.org/2000/svg"
 width="512.000000pt" height="512.000000pt" viewBox="0 0 512.000000 512.000000"
 preserveAspectRatio="xMidYMid meet">

<g transform="translate(0.000000,512.000000) scale(0.100000,-0.100000)"
fill="#000000" stroke="none">
<path d="M1645 3986 c-121 -30 -122 -32 -668 -575 -285 -284 -538 -543 -562
-576 -109 -153 -123 -330 -39 -497 38 -77 1096 -1135 1167 -1167 117 -53 58
-51 1494 -51 934 0 1348 3 1385 11 182 38 329 185 367 367 15 74 15 2050 0
2124 -38 182 -185 329 -367 367 -81 17 -2709 14 -2777 -3z m2753 -326 c33 -15
47 -29 62 -62 19 -42 20 -74 20 -1038 0 -964 -1 -996 -20 -1038 -15 -33 -29
-47 -62 -62 -42 -19 -77 -20 -1356 -20 -1152 0 -1318 2 -1346 15 -17 8 -260
244 -538 523 -549 550 -530 527 -513 620 6 32 68 99 513 544 278 279 520 514
536 522 27 14 195 16 1346 16 1281 0 1316 -1 1358 -20z"/>
<path d="M2332 3183 c-66 -32 -101 -105 -87 -180 6 -32 37 -69 208 -240 l201
-203 -201 -203 c-216 -217 -224 -230 -209 -312 9 -46 62 -100 114 -115 82 -25
104 -11 325 208 l197 196 198 -196 c220 -219 242 -233 324 -208 52 15 105 69
114 115 15 82 7 95 -209 312 l-201 203 201 203 c170 170 202 208 208 240 11
60 -2 104 -45 147 -43 43 -87 56 -147 45 -32 -6 -70 -38 -241 -208 l-202 -201
-198 196 c-108 108 -210 201 -225 207 -40 15 -87 13 -125 -6z"/>
</g>
</svg>
